<svg xmlns="http://www.w3.org/2000/svg" width="690" height="1000" viewBox="0 0 690 1000">
<defs>
<linearGradient id="bg" x1="0" y1="0" x2="0" y2="1"><stop stop-color="#714234"/><stop offset="1" stop-color="#d48e62"/></linearGradient>
<radialGradient id="glow"><stop stop-color="#ffe0a1" stop-opacity=".5"/><stop offset="1" stop-color="#ffe0a1" stop-opacity="0"/></radialGradient>
<filter id="soft"><feGaussianBlur stdDeviation="8"/></filter>
</defs>
<rect width="690" height="1000" fill="url(#bg)"/>
<circle cx="545" cy="155" r="180" fill="url(#glow)"/>
<g opacity=".16" fill="#fff"><circle cx="84" cy="110" r="6"/><circle cx="145" cy="70" r="3"/><circle cx="605" cy="260" r="5"/><circle cx="72" cy="420" r="4"/><circle cx="620" cy="520" r="3"/></g>
<g transform="translate(70 150)"><rect x="20" y="130" width="500" height="650" rx="20" fill="#f2c98f"/><path d="M0 130h540l-35 120H35Z" fill="#a84c47"/><path d="M40 130v120M130 130v120M220 130v120M310 130v120M400 130v120M490 130v120" stroke="#fff1d4" stroke-width="32"/><rect x="80" y="330" width="380" height="290" rx="22" fill="#654c48"/><g fill="#f4d17f"><path d="M130 500c40-100 120-100 160 0-60 45-110 45-160 0Z"/><path d="M285 500c40-100 120-100 160 0-60 45-110 45-160 0Z"/></g><rect x="220" y="660" width="120" height="120" fill="#8c5b4f"/></g>
</svg>