<svg xmlns="http://www.w3.org/2000/svg" width="690" height="1000" viewBox="0 0 690 1000">
<defs>
<linearGradient id="bg" x1="0" y1="0" x2="0" y2="1"><stop stop-color="#415f4c"/><stop offset="1" stop-color="#88a85b"/></linearGradient>
<radialGradient id="glow"><stop stop-color="#f4c46b" stop-opacity=".5"/><stop offset="1" stop-color="#f4c46b" stop-opacity="0"/></radialGradient>
<filter id="soft"><feGaussianBlur stdDeviation="8"/></filter>
</defs>
<rect width="690" height="1000" fill="url(#bg)"/>
<circle cx="545" cy="155" r="180" fill="url(#glow)"/>
<g opacity=".16" fill="#fff"><circle cx="84" cy="110" r="6"/><circle cx="145" cy="70" r="3"/><circle cx="605" cy="260" r="5"/><circle cx="72" cy="420" r="4"/><circle cx="620" cy="520" r="3"/></g>
<g transform="translate(55 270)"><rect x="40" y="130" width="520" height="310" rx="55" fill="#f0e3c5"/><rect x="85" y="185" width="155" height="120" rx="18" fill="#75c7d8"/><rect x="275" y="185" width="190" height="120" rx="18" fill="#75c7d8"/><rect x="455" y="230" width="105" height="210" rx="22" fill="#d6a95f"/><path d="M70 360h390" stroke="#f4c46b" stroke-width="34"/><circle cx="165" cy="455" r="65" fill="#253b42"/><circle cx="450" cy="455" r="65" fill="#253b42"/><circle cx="165" cy="455" r="28" fill="#dfe8e2"/><circle cx="450" cy="455" r="28" fill="#dfe8e2"/><path d="M90 90c40-60 90-60 130 0M360 85c55-70 120-70 175 0" stroke="#eef6da" stroke-width="18" fill="none" opacity=".7"/></g>
</svg>